<svg xmlns="http://www.w3.org/2000/svg" viewBox="0 0 64 64">
  <defs>
    <linearGradient id="bg" x1="0" y1="0" x2="1" y2="1">
      <stop offset="0" stop-color="#1b2330"/>
      <stop offset="1" stop-color="#0b0e14"/>
    </linearGradient>
  </defs>
  <rect x="1" y="1" width="62" height="62" rx="14" fill="url(#bg)" stroke="#27303f" stroke-width="2"/>
  <path d="M9 50 L22 40 L33 45 L54 16" fill="none" stroke="#3fb950" stroke-opacity=".45" stroke-width="3.5" stroke-linecap="round" stroke-linejoin="round"/>
  <line x1="18" y1="23" x2="18" y2="51" stroke="#3fb950" stroke-width="3"/>
  <rect x="13" y="29" width="10" height="14" rx="2" fill="#3fb950"/>
  <line x1="32" y1="17" x2="32" y2="45" stroke="#f85149" stroke-width="3"/>
  <rect x="27" y="22" width="10" height="14" rx="2" fill="#f85149"/>
  <line x1="46" y1="9" x2="46" y2="38" stroke="#3fb950" stroke-width="3"/>
  <rect x="41" y="15" width="10" height="15" rx="2" fill="#3fb950"/>
  <circle cx="50" cy="49" r="10.5" fill="#f7931a"/>
  <g stroke="#0b0e14" fill="#0b0e14" stroke-linecap="round" stroke-linejoin="round">
    <path d="M45.2 52.2 L52.8 44.6" stroke-width="2.6" fill="none"/>
    <path d="M53.8 43.6 L54 48.2 L49.2 43.8 Z"/>
    <path d="M46.2 55.6 L46 51 L50.8 55.4 Z"/>
  </g>
</svg>
